<svg xmlns="http://www.w3.org/2000/svg" width="480" height="480" viewBox="-240 -240 480 480"><g opacity="0"><animate attributeName="opacity" calcMode="discrete" repeatCount="indefinite" dur="2s" keyTimes="0;0.0417;0.0833;0.125;0.1667;0.2083;0.25;0.2917;0.3333;0.375;0.4167;0.4583;0.5;0.5417;0.5833;0.625;0.6667;0.7083;0.75;0.7917;0.8333;0.875;0.9167;0.9583;1" values="1;0;0;0;0;0;0;0;0;0;0;0;0;0;0;0;0;0;0;0;0;0;0;0;1"/><path d="m-113.6-69.1 69-50.4-23.1 9.9zm158.2-50.4 69 50.4-45.9-40.5zm69 188.6-69 50.4 23.1-9.9zm-158.2 50.4-69-50.4 45.9 40.5zM-129.3.5h3.7l13-71.2zm0-1 16.7 71.2-13-71.2zm258.6 0h-3.7l-13 71.2zm0 1-16.7-71.2 13 71.2zM-46.4-118.9h92.8L0-128.9zm92.8 237.8h-92.8l46.4 10zm-160-188.6 33.2 20.6 35.6-70.6zm158.4-50 35.7 70.6 33.1-20.6zm68.8 189.4L80.4 49.1l-35.6 70.6zm-158.4 50-35.7-70.6-33.1 20.6zM-126.4.9-79.9-50l-33.2-20.5zM79.9-49.9 126.4.9l-13.3-71.4zm46.5 49L79.9 50l33.2 20.5zM-79.9 49.9-126.4-.9l13.3 71.4zM0-85.3l46.3-34h-92.6zM0 85.3l-46.3 34h92.6zM-126.7 0l46.4 50.7V-50.7zm253.4 0L80.3-50.7V50.7zm-208-49.2L.9-85.8l-46.5-33.9zM-.9-85.8l82.2 36.6-35.7-70.5zm82.2 135L-.9 85.8l46.5 33.9zM.9 85.8l-82.2-36.6 35.7 70.5zm-82-136.4V50.6L.8 0zM81.1 50.6V-50.6L-.8 0zM-81.5-49.9.4.8l.1-87.4zm163 99.8L-.4-.8l-.1 87.4zm-163 0 82 36.7L.4-.8zm163-99.8-82-36.7L-.4.8z" style="fill:none;stroke:rgb(88,166,255);stroke-opacity:1;stroke-width:1;stroke-linecap:round;stroke-linejoin:round"/></g><g opacity="0"><animate attributeName="opacity" calcMode="discrete" repeatCount="indefinite" dur="2s" keyTimes="0;0.0417;0.0833;0.125;0.1667;0.2083;0.25;0.2917;0.3333;0.375;0.4167;0.4583;0.5;0.5417;0.5833;0.625;0.6667;0.7083;0.75;0.7917;0.8333;0.875;0.9167;0.9583;1" values="0;1;0;0;0;0;0;0;0;0;0;0;0;0;0;0;0;0;0;0;0;0;0;0;0"/><path d="m-22.9 130.7-77.2-44.3 36.2 21.5zm133.3-67-7.2 6L57 120.1zm22.4-54.3-30.1 61.1 7.1-6zM64.2-102.3l53.7 40.4-51.3-51.7zm-176.3 35.5-20.8 76.9 26.5-63.6zm177.2-35 2.3-11.3-68.3-20.1zm-177.7 35.9 5.7 13.3 35.9-59.1zM33.9 110.6l-58.6 19.8 83.3-11zm74-130.8 24.9 31.4-15.6-74.7zM-133.2 8.4-99 87.9l-7.7-58.7zm106.6-108.7L.8-133.4l-73.4 22.5zM104 69.1 33 111l24.8 8.9zm-127.1 61.8-20.6-45.4-56.5 1.2zm87.2-234.1 44.3 83.8 9.2-43.3zM133 10.2l-25-31.4-5 91.8zm-266.2-.9 26.6 20.9v-84.7zm105.6-109.7 93.3-1.9-65.8-31.2zm-79.9 47.6 81.6-48.1-46-10.6zM34.9 110.9l-79.6-25.6 20.7 45.5zm-78-24.7-64.4-57.6 7.9 58.8zm147.3-16.5L43 41.2l-9.6 70.5zm-.5.7 5-91.5-66.1 63.2zM36.2-49.2 109-19.7l-44.3-83.6zm.9.5 28.4-54.2-93.2 1.8zm-144.6 78.9 62-40.8-61.7-43.7zm-.2-83.8L-46-9.8l19.7-91.7zM-44.9 86l79.2 25.6 9.6-70.4zm-62.9-56.6 64.2 57.4-2.3-98.2zm216.9-49.8L36.4-50.2l6.7 93zm-156 10.5 84.7-39.5-64.9-52.2zm.1-1.5 2.4 98L44.3 42zm-.4.7 91.1 53.4-6.6-92.9z" style="fill:none;stroke:rgb(88,166,255);stroke-opacity:1;stroke-width:1;stroke-linecap:round;stroke-linejoin:round"/></g><g opacity="0"><animate attributeName="opacity" calcMode="discrete" repeatCount="indefinite" dur="2s" keyTimes="0;0.0417;0.0833;0.125;0.1667;0.2083;0.25;0.2917;0.3333;0.375;0.4167;0.4583;0.5;0.5417;0.5833;0.625;0.6667;0.7083;0.75;0.7917;0.8333;0.875;0.9167;0.9583;1" values="0;0;1;0;0;0;0;0;0;0;0;0;0;0;0;0;0;0;0;0;0;0;0;0;0"/><path d="m124.6-6.2 5.2 9.1-16.2-70.6zm-252.5 4.3 3 39 3.8-89.8zm257.7 3.8-5.2-9.1-10.3 75.6zM79.2-85.9l35.4 19.8L61-118.3zM-1.8 132-4 114.3l-73.6-6.6zm63.2-15.2L-5 114.3l2.3 17.7zM-69.1-113.5-121.9-51l52.3-41.9zm70-14.2-70.8 14.6-.6 20.8zm77.8 40.9 46.4 81.4-11-61.6zm1.4 1.3-18.2-32.4-62.8-9.8zM115.4 67l-36.5 1.1-19.1 49.6zm-241.1-31.6 49.3 73.4 1.5-39zm240.6 32.5 10.2-75.1L78.4 69zM-121.5-52.5l-3.8 89.5 37.2-52.8zm118 167.6-72.2-45.9-1.4 39.2zm-1.8-.1 66 2.4 19.1-49.5zM-121.9-51.7l33.4 36.8 19-79zm-3.8 87.9 50.9 34.6-13.7-87.5zM-3.5-67.2 80.4-86-.4-128.1zm1 0 3-60.9L-70.9-93zM70.1-14l55.4 8.2-46.3-81.3zm55.4 7.3L70.1-15 79 69.5zM-89.3-15-2-67.9l-68.4-25.8zm84 49.7.5 80.8 84.9-47zM-76.2 70-4 115.6l-.4-80.9zM71-13.7l9-73L-3.8-68zM-75.7 70.7-4 35.4l-85.2-51.9zm70-35.2 85.4 33.8L71-15.2zm-83.9-51.3 85.2 51.9 1.9-104.7zm84.3 51.9 76.8-50.5-74.8-54.2z" style="fill:none;stroke:rgb(88,166,255);stroke-opacity:1;stroke-width:1;stroke-linecap:round;stroke-linejoin:round"/></g><g opacity="0"><animate attributeName="opacity" calcMode="discrete" repeatCount="indefinite" dur="2s" keyTimes="0;0.0417;0.0833;0.125;0.1667;0.2083;0.25;0.2917;0.3333;0.375;0.4167;0.4583;0.5;0.5417;0.5833;0.625;0.6667;0.7083;0.75;0.7917;0.8333;0.875;0.9167;0.9583;1" values="0;0;0;1;0;0;0;0;0;0;0;0;0;0;0;0;0;0;0;0;0;0;0;0;0"/><path d="M117.3 47.3 131.6-10l-28 84.4zM-121-49.8l-9.7 72.6 11.1-38.5zM30.7 126.6l47.9-22.5 26.1-31.3zM88.2-73l17.1-6.6-53.7-42.6zM-83.1-98.4l-38.3 49.5 1.4 34.2zM87.6-73.8l44.2 65.6-27.1-72.2zm-34.4-47.7L-19-131.6-.2-110zM-130.9 21.8l27.2 52.7-16-91.2zM32.5 126.2l-68.4-19.8-12.8 17.8zM.8-110.2-18-131.8l-66.5 34.6zM-104.8 73l56.9 51.5 12.9-17.7zM132-9.8 96.2 8.3l7.7 66.2zM89.1-73l-36.7-49-53.3 11.4zM35.5 71.3l-4.4 55.6 73.8-53.7zm60.8-62 35.8-18.2L88-74.5zM-83.6-98.4-120.4-15l60-40.4zm47 205.4L32 126.7 36.4 71zm-83.7-123.5 16 90.8 46.1-40.1zM.9-110.9l-85.2 13 23.2 43.1zM-104.8 73.6l69.7 34-23.6-74.2zm139.9-1.5 69.4 1.9-7.6-66.2zM22.7-27.8l66.5-45.9-89.8-37.5zm-143.3 12.1 62.1 50.8-2.1-91.5zm217.8 25-8.5-83.7-66.6 45.9zM-36 107.6l72.9-35.9-96.5-38.1zM23.6-27.9.2-111.3l-62.1 55.9zM35.7 72.6 97.5 8.5l-75-37.7zm-95-37.5 83.2-63.8-85.4-27.5zm-.5-.7 96.3 38L23.3-29.3z" style="fill:none;stroke:rgb(88,166,255);stroke-opacity:1;stroke-width:1;stroke-linecap:round;stroke-linejoin:round"/></g><g opacity="0"><animate attributeName="opacity" calcMode="discrete" repeatCount="indefinite" dur="2s" keyTimes="0;0.0417;0.0833;0.125;0.1667;0.2083;0.25;0.2917;0.3333;0.375;0.4167;0.4583;0.5;0.5417;0.5833;0.625;0.6667;0.7083;0.75;0.7917;0.8333;0.875;0.9167;0.9583;1" values="0;0;0;0;1;0;0;0;0;0;0;0;0;0;0;0;0;0;0;0;0;0;0;0;0"/><path d="m-73.1 107.9 55.5 19.6 23-.1zM39.7-120.7l-22-7.1-59 4.5zm30 209.1-10 30.1 59.9-59.7zM91.1-65.2l40.1 41.4-41.4-74zm39.7 39.6-17.3 41.9 5.4 44.1zm-262.7 6.7 11.2 75.9 16.2-22.1zm31-68.5-31.2 70.3 40.7-43.7zm104.4 215 57.1-9.6 10-30.1zm88.3-192-1.3-32.8L38-121.4zM-121.1 56.2l49.5 52.8-33.3-75zM-39.5-124l-62 37.3L-92-60zM69.3 89.3l50.1-29.6-5.4-44.3zm44.4-72.1 17.4-41.9-40.2-41.4zM-91.5-61.7-132.2-18l27.3 53.8zm18.4 170 78.2 19.5-27.4-48.1zM39.6-121.2l-80.7-2.5L0-81.4zM-105.7 34.1l33.3 74.8 50.8-28.5zM.8-81.9l-41.1-42.2-52.4 63.7zM4.2 128l66.7-39.6-94.1-8.5zm88-192.9-53.4-56.7L-.8-81.8zM69.9 89.6l44.6-73.7-68-9zm44.5-72.8-22.9-83-45.1 74zM-92.2-61.8l-13.3 97.4 61.7-40.8zm68.9 142.5 93.9 8.5L47.3 6.6zM47.1 8.3l45.1-73.9-92.9-17zm-153 26.6 84 46.3L-44.3-6zM.7-82.7l-93.4 21.6 48.2 56.7zm-23.4 164L48 7.1-45.2-5.8zM47.9 7.9 0-83-45.3-4.9z" style="fill:none;stroke:rgb(88,166,255);stroke-opacity:1;stroke-width:1;stroke-linecap:round;stroke-linejoin:round"/></g><g opacity="0"><animate attributeName="opacity" calcMode="discrete" repeatCount="indefinite" dur="2s" keyTimes="0;0.0417;0.0833;0.125;0.1667;0.2083;0.25;0.2917;0.3333;0.375;0.4167;0.4583;0.5;0.5417;0.5833;0.625;0.6667;0.7083;0.75;0.7917;0.8333;0.875;0.9167;0.9583;1" values="0;0;0;0;0;1;0;0;0;0;0;0;0;0;0;0;0;0;0;0;0;0;0;0;0"/><path d="m-119-51.6-3.3 20-6.9 58.7zM124.3-48 123 11.5l3.5 22.2zM-62.2-95.9l50.8-36.9-76 33.6zM-98.9 89l64.2 39.7-43.5-44.6zm193.8-2.1 31.8-54.1-3.5-22.3zm-131.4 41.3 76.9-1L14 109.3zm-93.2-102.9 31.4 64.4 20.7-4.9zm68.3-121.8-25.3-3.3-33.1 50zm48.2-36.2 34.3 22.5 50.6-2zM88.5-58.5l36.6 12.1-54.9-66.8zm-49 186 56.7-41.9-83.2 24zm83.8-115.1 1.5-59.7-36.7-12.1zM22.1-110.3l-34.4-22.6-50.9 37zM-79.2 84.1l43.6 44.5 50.5-18.9zm-40.2-135.6L-129.6 27l39-34.4zM89.4-58 71-112.8l-50.7 2zM-91-8.3l-38.8 34.4L-78 85.5zM95.3 86.9l28.4-76.1L66 33.5zm-157.1-184-58 46.4 28.7 44.1zm75 207.4 82.8-24-29.2-53.4zm110.6-98.6L88.7-59.7 66.2 34.4zm-203.1 73 94 25.7-37.5-65.5zM21.8-111.1l-85 14.6L.2-43.1zm67.9 52.5-68.8-52.7-21.5 68zM-91.7-8.3l13 93.7 56.5-39.7zM.8-43.8l-63.3-53.3-29.4 90.3zm13.1 154.4 53.6-77.3-91.2 12zm53-76 22.5-94L-.8-44.2zM.6-44.6l-92.7 37 69.4 54.1zm67 78.7L-.2-44.8l-23.4 91z" style="fill:none;stroke:rgb(88,166,255);stroke-opacity:1;stroke-width:1;stroke-linecap:round;stroke-linejoin:round"/></g><g opacity="0"><animate attributeName="opacity" calcMode="discrete" repeatCount="indefinite" dur="2s" keyTimes="0;0.0417;0.0833;0.125;0.1667;0.2083;0.25;0.2917;0.3333;0.375;0.4167;0.4583;0.5;0.5417;0.5833;0.625;0.6667;0.7083;0.75;0.7917;0.8333;0.875;0.9167;0.9583;1" values="0;0;0;0;0;0;1;0;0;0;0;0;0;0;0;0;0;0;0;0;0;0;0;0;0"/><path d="m113.6-69.1-45.9-40.5-23.1-9.9zm-158.2-50.4-23.1 9.9-45.9 40.5zM67.7 109.6l45.9-40.5-69 50.4zm-181.3-40.5 45.9 40.5 23.1 9.9zm226.2 1.6L129.3-.6l-3.7.2zM-125.6-.5h-3.7l16.7 71.2zm238.2-70.2 13 71.3 3.7-.2zM-129.3.5h3.7l13-71.2zm82.9 118.4 46.4 10 46.4-10zM0-128.9l-46.4 10h92.8zm-80.4 79.8 35.6-70.6-68.8 50zM44.8 119.7l68.8-50-33.2-20.6zM-80.4 49.1l-33.2 20.6 68.8 50zM80.4-49.1l33.2-20.6-68.8-50zm32.7 119.6L126.4-.9 79.9 50zM-126.4-.9l13.3 71.4 33.2-20.6zM126.4.9l-13.3-71.4-33.2 20.6zM-79.9-49.9l-33.2-20.6L-126.4.9zm33.6-69.4L0-85.3l46.3-34zm0 238.6h92.6L0 85.3zM126.7 0 80.3-50.7V50.7zm-207-50.7L-126.7 0l46.4 50.7zm161.6 1.5-35.7-70.5L-.9-85.8zM.9-85.8l-46.5-33.9-35.7 70.5zm44.7 205.5 35.7-70.5L-.9 85.8zM-81.3 49.2l35.7 70.5L.9 85.8zm162.4 1.4V-50.6L-.8 0zM.9 0l-82-50.6V50.6zm80.6 49.9L-.4-.8l-.1 87.4zM.4-.8l-81.9 50.7 82 36.7zm81.1-49.1-82-36.7L-.4.8zM.5-86.6l-82 36.7L.4.8z" style="fill:none;stroke:rgb(88,166,255);stroke-opacity:1;stroke-width:1;stroke-linecap:round;stroke-linejoin:round"/></g><g opacity="0"><animate attributeName="opacity" calcMode="discrete" repeatCount="indefinite" dur="2s" keyTimes="0;0.0417;0.0833;0.125;0.1667;0.2083;0.25;0.2917;0.3333;0.375;0.4167;0.4583;0.5;0.5417;0.5833;0.625;0.6667;0.7083;0.75;0.7917;0.8333;0.875;0.9167;0.9583;1" values="0;0;0;0;0;0;0;1;0;0;0;0;0;0;0;0;0;0;0;0;0;0;0;0;0"/><path d="m-122.3 31.6 3.3 20-10.2-78.7zM124.3 48l2.2-81.7-3.5 22.2zM-62.2 95.9l-25.2 3.3 76 33.6zM-98.9-89l20.7 4.9 43.5-44.6zm193.7 2.1 28.4 76.4 3.5-22.3zm-131.3-41.3L14-109.3l26.4-17.9zm-41.1 43.4-20.7-4.9-31.4 64.4zm-42.2 134.6 33.1 50 25.3-3.3zm106.6 82.9 84.9-20.5-50.6-2zm83.4-19.5 54.9-66.8-36.6 12.1zm26-198.8-56.7-41.9L13-109.6zm28.6 132.9-1.5-59.7-35.2 71.8zm-188 48.6 50.9 37 34.4-22.6zm27.6-224.5-43.6 44.5 94.1-25.6zm-55 136-39-34.3 10.2 78.4zM71 112.8 89.4 58l-69.1 52.8zM-91 8.3l13-93.8-51.8 59.4zm214.7-19.1L95.3-86.9 66-33.5zM-91.1 6.6l-28.7 44.1 58 46.4zM66.8-32.9 96-86.3l-82.8-24zm57 21.2L66.2-34.4l22.5 94.1zm-203.1-73 56.5 39.8 37.5-65.5zM.2 43.1l-63.4 53.4 85 14.6zm89.5 15.5L-.6 43.3l21.5 68zM-22.2-45.7l-56.5-39.7-13 93.7zm23 89.5-92.7-37 29.4 90.3zm66.7-77.1-53.6-77.3-37.6 65.3zm21.9 92.7-22.5-94L-.8 44.2zM-22.7-46.5-92.1 7.6l92.7 37zm90.3 12.4-91.2-12.1 23.4 91z" style="fill:none;stroke:rgb(88,166,255);stroke-opacity:1;stroke-width:1;stroke-linecap:round;stroke-linejoin:round"/></g><g opacity="0"><animate attributeName="opacity" calcMode="discrete" repeatCount="indefinite" dur="2s" keyTimes="0;0.0417;0.0833;0.125;0.1667;0.2083;0.25;0.2917;0.3333;0.375;0.4167;0.4583;0.5;0.5417;0.5833;0.625;0.6667;0.7083;0.75;0.7917;0.8333;0.875;0.9167;0.9583;1" values="0;0;0;0;0;0;0;0;1;0;0;0;0;0;0;0;0;0;0;0;0;0;0;0;0"/><path d="m-73.1-107.9 78.5-19.5h-23zm31.8 231.2 59 4.5 22-7.1zm101-241.8 10 30.1 49.9 29.6zM89.8 97.8l41.4-74-40.1 41.4zm41-72.2-12-86-5.3 44.1zm-235.3-60.5L-120.7-57l-11.2 75.9zm13.1 95.7-40.7-43.7 31.2 70.3zM3.5-127.6l67.1 39.7-10-30.1zm87 224.8 1.3-32.8-53.8 57zM-121.1-56.2l16.2 22.2 33.3-75zM-92 60l-9.5 26.7 62 37.3zM69.3-89.3 114-15.4l5.3-44.3zm61.8 114-17.4-41.9-22.8 83.3zm-222.6 37-13.4-97.5-27.3 53.9zm18.4-170 50.8 28.6 27.4-48.1zM0 81.4l-41.1 42.3 80.7-2.5zm-72.4-190.3-33.3 74.8 84.1-46.3zM.8 81.9l-93.5-21.5 52.4 63.7zM70.9-88.5 4.2-128l-27.4 48.1zM92.2 64.9l-93 17 39.6 39.7zm22.3-80.8L69.9-89.6 46.5-6.9zm-.1-.9-68 9 45.1 74zm-158.2 22-61.7-40.8 13.4 97.4zM47.4-6.6l23.2-82.6-93.9 8.5zm44.8 72.2L47.1-8.3-.7 82.6zM-105.9-34.9-44.3 6l22.4-87.2zm61.4 39.3-48.2 56.8L.7 82.7zM48-7.1l-70.7-74.2-22.5 87.1zm-.1-.8L-45.3 4.9 0 83z" style="fill:none;stroke:rgb(88,166,255);stroke-opacity:1;stroke-width:1;stroke-linecap:round;stroke-linejoin:round"/></g><g opacity="0"><animate attributeName="opacity" calcMode="discrete" repeatCount="indefinite" dur="2s" keyTimes="0;0.0417;0.0833;0.125;0.1667;0.2083;0.25;0.2917;0.3333;0.375;0.4167;0.4583;0.5;0.5417;0.5833;0.625;0.6667;0.7083;0.75;0.7917;0.8333;0.875;0.9167;0.9583;1" values="0;0;0;0;0;0;0;0;0;1;0;0;0;0;0;0;0;0;0;0;0;0;0;0;0"/><path d="m131.6 10-14.3-57.3-13.7-27.1zm-251.2 5.7-11.1-38.5 9.7 72.6zM30.7-126.6l74 53.7-26.1-31.2zm74.6 206.2L88.2 73l-36.6 49.2zM-83.1 98.4-120 14.7l-1.4 34.2zm187.8-18 27.1-72.2-44.2 65.6zM-.2 110-19 131.6l72.2-10.1zM-130.9-21.8l11.2 38.5 16-91.2zm95-84.6 68.4-19.8-81.2 2zM.8 110.2l-85.3-13 66.5 34.6zM-104.8-73l69.8-33.8-12.9-17.7zM132 9.8l-28.1-84.3-7.7 66.2zM89.1 73-1 110.6 52.4 122zm-58-199.9 4.4 55.7 69.4-2zm101 135.8L96.3-9.3 88 74.5zM-60.4 55.4l-60-40.4 36.8 83.4zM-36.6-107l73.1 36-4.5-55.7zm-67.7 32.7-16 90.8 62.1-50.7zm43.1 129.1-23.1 43.1 85.2 13zm-43.6-128.4 46.1 40.2 23.6-74.2zm139.9 1.5L96.9-7.8l7.6-66.2zM89.2 73.7 22.7 27.8-.6 111.2zm-209.8-58 60 40.7 2.1-91.5zm217.8-25L22.1 28.5l66.6 45.9zM36.9-71.7-36-107.6l-23.6 74zM23.6 27.9l-85.5 27.5L.2 111.3zM97.4-8.5 35.7-72.6 22.5 29.2zM23.9 28.7l-83.2-63.8-2.2 91.3zm-.6.6L36.5-72.4l-96.3 38z" style="fill:none;stroke:rgb(88,166,255);stroke-opacity:1;stroke-width:1;stroke-linecap:round;stroke-linejoin:round"/></g><g opacity="0"><animate attributeName="opacity" calcMode="discrete" repeatCount="indefinite" dur="2s" keyTimes="0;0.0417;0.0833;0.125;0.1667;0.2083;0.25;0.2917;0.3333;0.375;0.4167;0.4583;0.5;0.5417;0.5833;0.625;0.6667;0.7083;0.75;0.7917;0.8333;0.875;0.9167;0.9583;1" values="0;0;0;0;0;0;0;0;0;0;1;0;0;0;0;0;0;0;0;0;0;0;0;0;0"/><path d="m129.8-2.9-5.2 9.1-11 61.5zm-257.7 4.8 6.8 50.8-3.8-89.8zm257.7-3.8-15.5-66.5 10.3 75.6zm-15.2 68L79.2 85.9 61 118.3zM-77.6-107.7l73.6-6.6 2.2-17.7zm72.6-6.6 66.4-2.6L-2.8-132zM-69.6 92.9-121.9 51l52.8 62.5zm-.9-.6.6 20.8L.9 127.7zM114.1 67l11-61.6-46.4 81.4zm-34 18.5-81 42.2 62.8-9.8zM115.4-67l-55.6-50.7 19.1 49.6zm-241.1 31.6 50.8-34.4-1.5-39zM125.1 7.2l-10.2-75.1L78.4-69zM-125.3-37l3.8 89.5 33.4-36.7zm49.6-32.2 72.2-45.9-73.6 6.7zM-5.3-115l85.1 47.1-19.1-49.5zM-121.9 51.7l52.4 42.2-19-79zm-3.8-87.9 37.2 52.9 13.7-87.5zM80.4 86-3.5 67.2l3.1 60.9zM-2.5 67.2-70.9 93 .5 128.1zm128-61.4L70.1 14l9.1 73.1zm0 .9L79-69.5 70.1 15zM-2 67.9-89.3 15l18.9 78.7zm-2.8-183.4-.5 80.8 85.4-33.8zM-76.2-70l71.8 35.3.4-80.9zM71 13.7-3.8 68 80 86.7zM-4-35.4l-71.7-35.3-13.5 87.2zm-1.7-.1L71 15.2l8.7-84.5zm3.2 104.1L-4.4-36.1l-85.2 51.9zm74-54.2L-5.3-36.1l2 104.7z" style="fill:none;stroke:rgb(88,166,255);stroke-opacity:1;stroke-width:1;stroke-linecap:round;stroke-linejoin:round"/></g><g opacity="0"><animate attributeName="opacity" calcMode="discrete" repeatCount="indefinite" dur="2s" keyTimes="0;0.0417;0.0833;0.125;0.1667;0.2083;0.25;0.2917;0.3333;0.375;0.4167;0.4583;0.5;0.5417;0.5833;0.625;0.6667;0.7083;0.75;0.7917;0.8333;0.875;0.9167;0.9583;1" values="0;0;0;0;0;0;0;0;0;0;0;1;0;0;0;0;0;0;0;0;0;0;0;0;0"/><path d="m-100.1-86.4 77.2-44.3-41 22.8zM57-120.1l46.2 50.4 7.2 6zm45.7 49.6 30.1 61.1-23-55.2zm15.2 132.4-53.7 40.4 2.4 11.3zm-250.8-72 20.8 76.9 5.7-13.3zm198 111.9-66 31.4 68.3-20.1zm-177.7-35.9 41.6 45.8-35.9-59.1zM33.9-110.6l24.7-8.8-83.3-11zm98.9 99.4-24.9 31.4 9.3 43.3zm-266 2.8 26.5-20.8 7.7-58.7zm106.6 108.7-46 10.6L.8 133.4zM33-111l71.1 41.9-46.3-50.8zm-133.2 24.3 56.5 1.2 20.6-45.4zM117.7 62.7l-9.3-43.3-44.3 83.8zM133-10.2l-30-60.5 5 91.9zm-266.2.9 26.6 63.8v-84.7zM65.7 102.3l-93.3-1.9 27.5 33.1zm-91.6-1.4-81.6-48.1 35.6 58.7zM-44.7-85.3l79.6-25.6-58.9-19.9zm-62.8 56.7 64.4-57.6-56.6-1.2zm211.7-41.1-70.8-42 9.7 70.5zm4.5 90.8-5-91.5-61.1 28.3zm.3-1.4L36.2 49.2l28.6 54.1zm-71.9 29-64.8 52.4 93.2 1.8zm-82.6-38.1-62-40.8.3 84.5zm19.2 90.9L-46 9.8l-61.7 43.8zM-44.9-86 44-41.2l-9.7-70.4zm-62.9 56.6 61.9 40.8 2.3-98.2zm216.9 49.9-66-63.3-6.7 93zM37.7 49.4-46.9 9.9l19.8 91.7zm-82.1-136-2.4 98L44.3-42zm-2.8 97.3 84.5 39.5 6.6-92.9z" style="fill:none;stroke:rgb(88,166,255);stroke-opacity:1;stroke-width:1;stroke-linecap:round;stroke-linejoin:round"/></g><g opacity="0"><animate attributeName="opacity" calcMode="discrete" repeatCount="indefinite" dur="2s" keyTimes="0;0.0417;0.0833;0.125;0.1667;0.2083;0.25;0.2917;0.3333;0.375;0.4167;0.4583;0.5;0.5417;0.5833;0.625;0.6667;0.7083;0.75;0.7917;0.8333;0.875;0.9167;0.9583;1" values="0;0;0;0;0;0;0;0;0;0;0;0;1;0;0;0;0;0;0;0;0;0;0;0;0"/><path d="m113.6 69.1-69 50.4 23.1-9.9zm-158.2 50.4-69-50.4 45.9 40.5zm-69-188.6 69-50.4-23.1 9.9zm158.2-50.4 69 50.4-45.9-40.5zm84.7 119h-3.7l-13 71.2zm0 1-16.7-71.2 13 71.2zm-258.6 0h3.7l13-71.2zm0-1 16.7 71.2-13-71.2zM46.4 118.9h-92.8l46.4 10zm-92.8-237.8h92.8L0-128.9zm91.2-.8 35.7 70.6 33.1-20.6zm68.8 189.4L80.4 49.1l-35.6 70.6zm-158.4 50-35.7-70.6-33.1 20.6zm-68.8-189.4 33.2 20.6 35.6-70.6zm240 68.8L79.9 50l33.2 20.5zM-79.9 49.9-126.4-.9l13.3 71.4zm-46.5-49L-79.9-50l-33.2-20.5zM79.9-49.9 126.4.9l-13.3-71.4zM0-85.3l46.3-34h-92.6zM0 85.3l-46.3 34h92.6zM126.7 0 80.3-50.7V50.7zm-253.4 0 46.4 50.7V-50.7zm208 49.2L-.9 85.8l46.5 33.9zM.9 85.8l-82.2-36.6 35.7 70.5zm-82.2-135L.9-85.8l-46.5-33.9zM-.9-85.8l82.2 36.6-35.7-70.5zm82 136.4V-50.6L-.8 0zM-81.1-50.6V50.6L.8 0zM81.5 49.9-.4-.8l-.1 87.4zm-163-99.8L.4.8l.1-87.4zm163 0-82-36.7L-.4.8zm-163 99.8 82 36.7L.4-.8z" style="fill:none;stroke:rgb(88,166,255);stroke-opacity:1;stroke-width:1;stroke-linecap:round;stroke-linejoin:round"/></g><g opacity="0"><animate attributeName="opacity" calcMode="discrete" repeatCount="indefinite" dur="2s" keyTimes="0;0.0417;0.0833;0.125;0.1667;0.2083;0.25;0.2917;0.3333;0.375;0.4167;0.4583;0.5;0.5417;0.5833;0.625;0.6667;0.7083;0.75;0.7917;0.8333;0.875;0.9167;0.9583;1" values="0;0;0;0;0;0;0;0;0;0;0;0;0;1;0;0;0;0;0;0;0;0;0;0;0"/><path d="m100.1 86.4-77.2 44.3 41-22.8zM-57 120.1l-46.2-50.4-7.2-6zm-45.7-49.6-30.1-61.1 23 55.2zm-15.2-132.4 53.7-40.4-2.4-11.3zm250.8 72-20.8-76.9-5.7 13.3zm-198-111.9 66-31.4-68.3 20.1zm177.7 35.9L71-111.7l35.9 59.1zM-33.9 110.6l-24.7 8.8 83.3 11zm-98.9-99.4 24.9-31.4-9.3-43.3zm266-2.8-26.5 20.8L99 87.9zM26.6-100.3l46-10.6-73.4-22.5zM-33 111l-71.1-41.9 46.3 50.8zm133.2-24.3-56.5-1.2-20.6 45.4zM-117.7-62.7l9.3 43.3 44.3-83.8zM-133 10.2l30 60.5-5-91.9zm266.2-.9-26.6-63.8v84.7zM-65.7-102.3l93.3 1.9L.1-133.5zm91.6 1.4 81.6 48.1-35.6-58.7zM44.7 85.3l-79.6 25.6L24 130.8zm62.8-56.7L43.1 86.2l56.6 1.2zm-211.7 41.1 70.8 42-9.7-70.5zm-4.5-90.8 5 91.5 61.1-28.3zm-.3 1.4 72.8-29.5-28.6-54.1zm71.9-29 64.8-52.4-93.2-1.8zm82.6 38.1 62 40.8-.3-84.5zm-19.2-90.9L46-9.8l61.7-43.8zM44.9 86-44 41.2l9.7 70.4zm62.9-56.6L45.9-11.4l-2.3 98.2zm-216.9-49.9 66 63.3 6.7-93zm71.4-28.9L46.9-9.9l-19.8-91.7zm82.1 136 2.4-98L-44.3 42zm2.8-97.3-84.5-39.5-6.6 92.9z" style="fill:none;stroke:rgb(88,166,255);stroke-opacity:1;stroke-width:1;stroke-linecap:round;stroke-linejoin:round"/></g><g opacity="0"><animate attributeName="opacity" calcMode="discrete" repeatCount="indefinite" dur="2s" keyTimes="0;0.0417;0.0833;0.125;0.1667;0.2083;0.25;0.2917;0.3333;0.375;0.4167;0.4583;0.5;0.5417;0.5833;0.625;0.6667;0.7083;0.75;0.7917;0.8333;0.875;0.9167;0.9583;1" values="0;0;0;0;0;0;0;0;0;0;0;0;0;0;1;0;0;0;0;0;0;0;0;0;0"/><path d="m-129.8 2.9 5.2-9.1 11-61.5zm257.7-4.8-6.8-50.8 3.8 89.8zm-257.7 3.8 15.5 66.5-10.3-75.6zm15.2-68 35.4-19.8 18.2-32.4zM77.6 107.7 4 114.3 1.8 132zM5 114.3l-66.4 2.6L2.8 132zM69.6-92.9 121.9-51l-52.8-62.5zm.9.6-.6-20.8-70.8-14.6zM-114.1-67l-11 61.6 46.4-81.4zm34-18.5 81-42.2-62.8 9.8zM-115.4 67l55.6 50.7-19.1-49.6zm241.1-31.6L74.9 69.8l1.5 39zM-125.1-7.2l10.2 75.1 36.5 1.1zM125.3 37l-3.8-89.5-33.4 36.7zM75.7 69.2 3.5 115.1l73.6-6.7zM5.3 115l-85.1-47.1 19.1 49.5zM121.9-51.7 69.5-93.9l19 79zm3.8 87.9L88.5-16.7 74.8 70.8zM-80.4-86 3.5-67.2.4-128.1zM2.5-67.2 70.9-93-.5-128.1zm-128 61.4 55.4-8.2-9.1-73.1zm0-.9L-79 69.5l8.9-84.5zM2-67.9 89.3-15 70.4-93.7zm2.8 183.4.5-80.8-85.4 33.8zM76.2 70 4.4 34.7 4 115.6zM-71-13.7 3.8-68-80-86.7zM4 35.4l71.7 35.3 13.5-87.2zm1.7.1L-71-15.2l-8.7 84.5zM2.5-68.6 4.4 36.1l85.2-51.9zm-74 54.2L5.3 36.1l-2-104.7z" style="fill:none;stroke:rgb(88,166,255);stroke-opacity:1;stroke-width:1;stroke-linecap:round;stroke-linejoin:round"/></g><g opacity="0"><animate attributeName="opacity" calcMode="discrete" repeatCount="indefinite" dur="2s" keyTimes="0;0.0417;0.0833;0.125;0.1667;0.2083;0.25;0.2917;0.3333;0.375;0.4167;0.4583;0.5;0.5417;0.5833;0.625;0.6667;0.7083;0.75;0.7917;0.8333;0.875;0.9167;0.9583;1" values="0;0;0;0;0;0;0;0;0;0;0;0;0;0;0;1;0;0;0;0;0;0;0;0;0"/><path d="m-131.6-10 14.3 57.3 13.7 27.1zm251.2-5.7 11.1 38.5-9.7-72.6zM-30.7 126.6l-74-53.7 26.1 31.2zm-74.6-206.2 17.1 6.6 36.6-49.2zM83.1-98.4 120-14.7l1.4-34.2zm-187.8 18-27.1 72.2 44.2-65.6zM.2-110 19-131.6l-72.2 10.1zM130.9 21.8l-11.2-38.5-16 91.2zm-95 84.6-68.4 19.8 81.2-2zM-.8-110.2l85.3 13L18-131.8zM104.8 73 35 106.8l12.9 17.7zM-132-9.8l28.1 84.3 7.7-66.2zM-89.1-73 1-110.6-52.4-122zm58 199.9-4.4-55.7-69.4 2zm-101-135.8 35.8 18.2 8.3-83.8zM60.4-55.4l60 40.4-36.8-83.4zM36.6 107l-73.1-36 4.5 55.7zm67.7-32.7 16-90.8-62.1 50.7zM61.2-54.8l23.1-43.1-85.2-13zm43.6 128.4L58.7 33.4l-23.6 74.2zm-139.9-1.5L-96.9 7.8l-7.6 66.2zM-89.2-73.7l66.5 45.9L.6-111.2zm209.8 58-60-40.7-2.1 91.5zm-217.8 25 75.1-37.8-66.6-45.9zm60.3 62.4L36 107.6l23.6-74zm13.3-99.6 85.5-27.5-62.1-55.9zM-97.4 8.5l61.7 64.1 13.2-101.8zm73.5-37.2 83.2 63.8 2.2-91.3zm.6-.6L-36.5 72.4l96.3-38z" style="fill:none;stroke:rgb(88,166,255);stroke-opacity:1;stroke-width:1;stroke-linecap:round;stroke-linejoin:round"/></g><g opacity="0"><animate attributeName="opacity" calcMode="discrete" repeatCount="indefinite" dur="2s" keyTimes="0;0.0417;0.0833;0.125;0.1667;0.2083;0.25;0.2917;0.3333;0.375;0.4167;0.4583;0.5;0.5417;0.5833;0.625;0.6667;0.7083;0.75;0.7917;0.8333;0.875;0.9167;0.9583;1" values="0;0;0;0;0;0;0;0;0;0;0;0;0;0;0;0;1;0;0;0;0;0;0;0;0"/><path d="m73.1 107.9-78.5 19.5h23zM41.3-123.3l-59-4.5-22 7.1zm-101 241.8-10-30.1-49.9-29.6zM-89.8-97.8l-41.4 74 40.1-41.4zm-41 72.2 12 86 5.3-44.1zm235.3 60.5L120.7 57l11.2-75.9zM91.4-60.8l40.7 43.7-31.2-70.3zM-3.5 127.6l-67.1-39.7 10 30.1zm-87-224.8-1.3 32.8 53.8-57zM121.1 56.2 104.9 34l-33.3 75zM92-60l9.5-26.7-62-37.3zM-69.3 89.3-114 15.4l-5.3 44.3zm-61.8-114 17.4 41.9 22.8-83.3zm222.6-37 13.4 97.5 27.3-53.9zm-18.4 170L22.3 79.7l-27.4 48.1zM0-81.4l41.1-42.3-80.7 2.5zm72.4 190.3 33.3-74.8-84.1 46.3zM-.8-81.9l93.5 21.5-52.4-63.7zM-70.9 88.5-4.2 128l27.4-48.1zM-92.2-64.9l93-17-39.6-39.7zm-22.3 80.8 44.6 73.7 23.4-82.7zm.1.9 68-9-45.1-74zm158.2-22 61.7 40.8-13.4-97.4zM-47.4 6.6l-23.2 82.6 93.9-8.5zm-44.8-72.2 45.1 73.9L.7-82.6zM105.9 34.9 44.3-6 21.9 81.2zM44.5-4.4l48.2-56.8L-.7-82.7zM-48 7.1l70.7 74.2L45.2-5.8zm.1.8L45.3-4.9 0-83z" style="fill:none;stroke:rgb(88,166,255);stroke-opacity:1;stroke-width:1;stroke-linecap:round;stroke-linejoin:round"/></g><g opacity="0"><animate attributeName="opacity" calcMode="discrete" repeatCount="indefinite" dur="2s" keyTimes="0;0.0417;0.0833;0.125;0.1667;0.2083;0.25;0.2917;0.3333;0.375;0.4167;0.4583;0.5;0.5417;0.5833;0.625;0.6667;0.7083;0.75;0.7917;0.8333;0.875;0.9167;0.9583;1" values="0;0;0;0;0;0;0;0;0;0;0;0;0;0;0;0;0;1;0;0;0;0;0;0;0"/><path d="m122.3-31.6-3.3-20 10.2 78.7zM-124.3-48l-2.2 81.7 3.5-22.2zM62.2-95.9l25.2-3.3-76-33.6zM98.9 89l-20.7-4.9-43.5 44.6zm-193.7-2.1-28.4-76.4-3.5 22.3zm131.3 41.3L-14 109.3l-26.4 17.9zm41.1-43.4 20.7 4.9 31.4-64.4zm42.2-134.6-33.1-50-25.3 3.3zM13.2-132.7l-84.9 20.5 50.6 2zm-83.4 19.5-54.9 66.8 36.6-12.1zm-26 198.8 56.7 41.9 26.5-17.9zm-28.6-132.9 1.5 59.7 35.2-71.8zm188-48.6-50.9-37-34.4 22.6zM35.6 128.6l43.6-44.5-94.1 25.6zm55-136 39 34.3-10.2-78.4zM-71-112.8-89.4-58l69.1-52.8zM91-8.3 78 85.5l51.8-59.4zm-214.7 19.1 28.4 76.1L-66 33.5zM91.1-6.6l28.7-44.1-58-46.4zM-66.8 32.9-96 86.3l82.8 24zm-57-21.2 57.6 22.7-22.5-94.1zm203.1 73L22.8 44.9l-37.5 65.5zM-.2-43.1l63.4-53.4-85-14.6zm-89.5-15.5L.6-43.3l-21.5-68zM22.2 45.7l56.5 39.7 13-93.7zm-23-89.5 92.7 37-29.4-90.3zm-66.7 77.1 53.6 77.3 37.6-65.3zm-21.9-92.7 22.5 94L.8-44.2zM22.7 46.5 92.1-7.6l-92.7-37zm-90.3-12.4 91.2 12.1-23.4-91z" style="fill:none;stroke:rgb(88,166,255);stroke-opacity:1;stroke-width:1;stroke-linecap:round;stroke-linejoin:round"/></g><g opacity="0"><animate attributeName="opacity" calcMode="discrete" repeatCount="indefinite" dur="2s" keyTimes="0;0.0417;0.0833;0.125;0.1667;0.2083;0.25;0.2917;0.3333;0.375;0.4167;0.4583;0.5;0.5417;0.5833;0.625;0.6667;0.7083;0.75;0.7917;0.8333;0.875;0.9167;0.9583;1" values="0;0;0;0;0;0;0;0;0;0;0;0;0;0;0;0;0;0;1;0;0;0;0;0;0"/><path d="m-67.7-109.6-45.9 40.5 69-50.4zm181.3 40.5-45.9-40.5-23.1-9.9zm-69 188.6 23.1-9.9 45.9-40.5zm-158.2-50.4 45.9 40.5 23.1 9.9zm1 1.6-13-71.3-3.7.2zM129.3-.5h-3.7l-13 71.2zm-241.9-70.2L-129.3.6l3.7-.2zM125.6.5h3.7l-16.7-71.2zM0 128.9l46.4-10h-92.8zm46.4-247.8L0-128.9l-46.4 10zm-91.2-.8-68.8 50 33.2 20.6zM80.4-49.1l33.2-20.6-68.8-50zM-80.4 49.1l-33.2 20.6 68.8 50zm160.8 0-35.6 70.6 68.8-50zM-113.1-70.5-126.4.9-79.9-50zM126.4.9l-13.3-71.4-33.2 20.6zM-126.4-.9l13.3 71.4 33.2-20.6zM79.9 49.9l33.2 20.6L126.4-.9zM46.3-119.3h-92.6L0-85.3zm0 238.6L0 85.3l-46.3 34zM-126.7 0l46.4 50.7V-50.7zm207 50.7L126.7 0 80.3-50.7zM-45.6-119.7l-35.7 70.5L.9-85.8zM81.3-49.2l-35.7-70.5L-.9-85.8zM-81.3 49.2l35.7 70.5L.9 85.8zM-.9 85.8l46.5 33.9 35.7-70.5zM-81.1-50.6V50.6L.8 0zM-.9 0l82 50.6V-50.6zm-80.6-49.9L.4.8l.1-87.4zM-.4.8l81.9-50.7-82-36.7zm-81.1 49.1 82 36.7L.4-.8zm81 36.7 82-36.7L-.4-.8z" style="fill:none;stroke:rgb(88,166,255);stroke-opacity:1;stroke-width:1;stroke-linecap:round;stroke-linejoin:round"/></g><g opacity="0"><animate attributeName="opacity" calcMode="discrete" repeatCount="indefinite" dur="2s" keyTimes="0;0.0417;0.0833;0.125;0.1667;0.2083;0.25;0.2917;0.3333;0.375;0.4167;0.4583;0.5;0.5417;0.5833;0.625;0.6667;0.7083;0.75;0.7917;0.8333;0.875;0.9167;0.9583;1" values="0;0;0;0;0;0;0;0;0;0;0;0;0;0;0;0;0;0;0;1;0;0;0;0;0"/><path d="m119 51.6 3.3-20 6.9-58.7zM-124.3 48l1.3-59.5-3.5-22.2zM62.2 95.9l-50.8 36.9 76-33.6zM98.9-89l-64.2-39.7 43.5 44.6zm-193.8 2.1-31.8 54.1 3.5 22.3zm131.4-41.3-76.9 1 26.4 17.9zm93.2 102.9L98.3-89.7l-20.7 4.9zM61.4 96.5l25.3 3.3 33.1-50zm-48.2 36.2-34.3-22.5-50.6 2zM-88.5 58.5l-36.6-12.1 54.9 66.8zm49-186-56.7 41.9 83.2-24zm-83.8 115.1-1.5 59.7 36.7 12.1zm101.2 122.7 34.4 22.6 50.9-37zM79.2-84.1l-43.6-44.5-50.5 18.9zm40.2 135.6L129.6-27l-39 34.4zM-89.4 58l18.4 54.8 50.7-2zM91 8.3l38.8-34.4L78-85.5zM-95.3-86.9l-28.4 76.1L-66-33.5zm157.1 184 58-46.4L91.1 6.6zm-75-207.4-82.8 24 29.2 53.4zm-110.6 98.6 35.1 71.4 22.5-94.1zm203.1-73-94-25.7 37.5 65.5zM-21.8 111.1l85-14.6L-.2 43.1zm-67.9-52.5 68.8 52.7 21.5-68zM91.7 8.3l-13-93.7-56.5 39.7zM-.8 43.8l63.3 53.3L91.9 6.8zm-13.1-154.4-53.6 77.3 91.2-12zm-53 76-22.5 94L.8 44.2zM-.6 44.6l92.7-37-69.4-54.1zm-67-78.7L.2 44.8l23.4-91z" style="fill:none;stroke:rgb(88,166,255);stroke-opacity:1;stroke-width:1;stroke-linecap:round;stroke-linejoin:round"/></g><g opacity="0"><animate attributeName="opacity" calcMode="discrete" repeatCount="indefinite" dur="2s" keyTimes="0;0.0417;0.0833;0.125;0.1667;0.2083;0.25;0.2917;0.3333;0.375;0.4167;0.4583;0.5;0.5417;0.5833;0.625;0.6667;0.7083;0.75;0.7917;0.8333;0.875;0.9167;0.9583;1" values="0;0;0;0;0;0;0;0;0;0;0;0;0;0;0;0;0;0;0;0;1;0;0;0;0"/><path d="m73.1-107.9-55.5-19.6-23 .1zM-39.7 120.7l22 7.1 59-4.5zm-30-209.1 10-30.1-59.9 59.7zM-91.1 65.2l-40.1-41.4 41.4 74zm-39.7-39.6 17.3-41.9-5.4-44.1zm262.7-6.7L120.7-57l-16.2 22.1zm-31 68.5 31.2-70.3-40.7 43.7zm-104.4-215-57.1 9.6-10 30.1zm-88.3 192 1.3 32.8 52.5 24.2zM121.1-56.2 71.6-109l33.3 75zM39.5 124l62-37.3L92 60zM-69.3-89.3l-50.1 29.6 5.4 44.3zm-44.4 72.1-17.4 41.9 40.2 41.4zM91.5 61.7 132.2 18l-27.3-53.8zm-18.4-170-78.2-19.5 27.4 48.1zM-39.6 121.2l80.7 2.5L0 81.4zM105.7-34.1l-33.3-74.8-50.8 28.5zM-.8 81.9l41.1 42.2 52.4-63.7zM-4.2-128l-66.7 39.6 94.1 8.5zm-88 192.9 53.4 56.7L.8 81.8zm22.3-154.5-44.6 73.7 68 9zm-44.5 72.8 22.9 83 45.1-74zM92.2 61.8l13.3-97.4L43.8 5.2zM23.3-80.7l-93.9-8.5 23.3 82.6zM-47.1-8.3l-45.1 73.9 92.9 17zm153-26.6-84-46.3L44.3 6zM-.7 82.7l93.4-21.6L44.5 4.4zm23.4-164L-48-7.1 45.2 5.8zM-47.9-7.9 0 83 45.3 4.9z" style="fill:none;stroke:rgb(88,166,255);stroke-opacity:1;stroke-width:1;stroke-linecap:round;stroke-linejoin:round"/></g><g opacity="0"><animate attributeName="opacity" calcMode="discrete" repeatCount="indefinite" dur="2s" keyTimes="0;0.0417;0.0833;0.125;0.1667;0.2083;0.25;0.2917;0.3333;0.375;0.4167;0.4583;0.5;0.5417;0.5833;0.625;0.6667;0.7083;0.75;0.7917;0.8333;0.875;0.9167;0.9583;1" values="0;0;0;0;0;0;0;0;0;0;0;0;0;0;0;0;0;0;0;0;0;1;0;0;0"/><path d="M-117.3-47.3-131.6 10l28-84.4zM121 49.8l9.7-72.6-11.1 38.5zM-30.7-126.6l-47.9 22.5-26.1 31.3zM-88.2 73l-17.1 6.6 53.7 42.6zM83.1 98.4l38.3-49.5-1.4-34.2zM-87.6 73.8l-44.2-65.6 27.1 72.2zm34.4 47.7L19 131.6.2 110zM130.9-21.8l-27.2-52.7 16 91.2zM-32.5-126.2l68.4 19.8 12.8-17.8zM-.8 110.2 18 131.8l66.5-34.6zM104.8-73l-56.9-51.5L35-106.8zM-132 9.8l35.8-18.1-7.7-66.2zM-89.1 73l36.7 49L.9 110.6zm53.6-144.3 4.4-55.6-73.8 53.7zm-60.8 62-35.8 18.2L-88 74.5zM83.6 98.4 120.4 15l-60 40.4zM36.6-107-32-126.7-36.4-71zm83.7 123.5-16-90.8-46.1 40.1zM-.9 110.9l85.2-13-23.2-43.1zM104.8-73.6l-69.7-34 23.6 74.2zm-139.9 1.5-69.4-1.9 7.6 66.2zm12.4 99.9-66.5 45.9L.6 111.2zm143.3-12.1L58.5-35.1l2.1 91.5zm-217.8-25 8.5 83.7 66.6-45.9zM36-107.6l-72.9 35.9 96.5 38.1zM-23.6 27.9l23.4 83.4 62.1-55.9zM-35.7-72.6-97.5-8.5l75 37.7zm95 37.5-83.2 63.8 85.4 27.5zm.5.7-96.3-38 13.2 101.7z" style="fill:none;stroke:rgb(88,166,255);stroke-opacity:1;stroke-width:1;stroke-linecap:round;stroke-linejoin:round"/></g><g opacity="0"><animate attributeName="opacity" calcMode="discrete" repeatCount="indefinite" dur="2s" keyTimes="0;0.0417;0.0833;0.125;0.1667;0.2083;0.25;0.2917;0.3333;0.375;0.4167;0.4583;0.5;0.5417;0.5833;0.625;0.6667;0.7083;0.75;0.7917;0.8333;0.875;0.9167;0.9583;1" values="0;0;0;0;0;0;0;0;0;0;0;0;0;0;0;0;0;0;0;0;0;0;1;0;0"/><path d="m-124.6 6.2-5.2-9.1 16.2 70.6zm252.5-4.3-3-39-3.8 89.8zm-257.7-3.8 5.2 9.1 10.3-75.6zm50.6 87.8-35.4-19.8 53.6 52.2zM1.8-132 4-114.3l73.6 6.6zm-63.2 15.2L5-114.3 2.7-132zM69.1 113.5 121.9 51 69.6 92.9zm-70 14.2 70.8-14.6.6-20.8zm-77.8-40.9-46.4-81.4 11 61.6zm-1.4-1.3 18.2 32.4 62.8 9.8zM-115.4-67l36.5-1.1 19.1-49.6zm241.1 31.6-49.3-73.4-1.5 39zm-240.6-32.5-10.2 75.1L-78.4-69zM121.5 52.5l3.8-89.5-37.2 52.8zM3.5-115.1l72.2 45.9 1.4-39.2zm1.8.1-66-2.4-19.1 49.5zM121.9 51.7 88.5 14.9l-19 79zm3.8-87.9L74.8-70.8l13.7 87.5zM3.5 67.2-80.4 86 .4 128.1zm-1 0-3 60.9L70.9 93zM-70.1 14l-55.4-8.2 46.3 81.3zm-55.4-7.3 55.4 8.3-8.9-84.5zM89.3 15 2 67.9l68.4 25.8zm-84-49.7-.5-80.8-84.9 47zM76.2-70 4-115.6l.4 80.9zM-71 13.7l-9 73L3.8 68zM75.7-70.7 4-35.4l85.2 51.9zm-70 35.2-85.4-33.8 8.7 84.5zm83.9 51.3L4.4-36.1 2.5 68.6zM5.3-36.1l-76.8 50.5L3.3 68.6z" style="fill:none;stroke:rgb(88,166,255);stroke-opacity:1;stroke-width:1;stroke-linecap:round;stroke-linejoin:round"/></g><g opacity="0"><animate attributeName="opacity" calcMode="discrete" repeatCount="indefinite" dur="2s" keyTimes="0;0.0417;0.0833;0.125;0.1667;0.2083;0.25;0.2917;0.3333;0.375;0.4167;0.4583;0.5;0.5417;0.5833;0.625;0.6667;0.7083;0.75;0.7917;0.8333;0.875;0.9167;0.9583;1" values="0;0;0;0;0;0;0;0;0;0;0;0;0;0;0;0;0;0;0;0;0;0;0;1;0"/><path d="m22.9-130.7 77.2 44.3-36.2-21.5zm-133.3 67 7.2-6 46.2-50.4zm-22.4 54.3 30.1-61.1-7.1 6zm68.6 111.7-53.7-40.4 51.3 51.7zm176.3-35.5 20.8-76.9-26.5 63.6zm-177.2 35-2.3 11.3L.9 133.2zm177.7-35.9-5.7-13.3L71 111.7zM-33.9-110.6l58.6-19.8-83.3 11zm-74 130.8-24.9-31.4 15.6 74.7zM133.2-8.4 99-87.9l7.7 58.7zM26.6 100.3-.8 133.4l73.4-22.5zM-104-69.1l71-41.9-24.8-8.9zm127.1-61.8 20.6 45.4 56.5-1.2zm-87.2 234.1-44.3-83.8-9.2 43.3zM-133-10.2l25 31.4 5-91.8zm266.2.9-26.6-20.9v84.7zM27.6 100.4l-93.3 1.9L.1 133.5zm79.9-47.6-81.6 48.1 46 10.6zM-34.9-110.9l79.6 25.6L24-130.8zm78 24.7 64.4 57.6-7.9-58.8zm-147.3 16.5L-43-41.2l9.6-70.5zm.5-.7-5 91.5 66.1-63.2zm67.5 119.6L-109 19.7l44.3 83.6zm-.9-.5-28.4 54.2 93.2-1.8zm144.6-78.9-62 40.8 61.7 43.7zm.2 83.8L46 9.8l-19.7 91.7zM44.9-86l-79.2-25.6-9.6 70.4zm62.9 56.6L43.6-86.8l2.3 98.2zm-216.9 49.8 72.7 29.8-6.7-93zm156-10.5-84.7 39.5 64.9 52.2zm-.1 1.5-2.4-98L-44.3-42zm.4-.7-91.1-53.4 6.6 92.9z" style="fill:none;stroke:rgb(88,166,255);stroke-opacity:1;stroke-width:1;stroke-linecap:round;stroke-linejoin:round"/></g></svg>